<?xml version="1.0"?><svg version="1.1" id="圖層_1" xmlns="http://www.w3.org/2000/svg" x="0" y="0" viewBox="0 0 100 100" xml:space="preserve"><circle cx="50" cy="50" r="40" fill="#333"/><path d="M65.014 46.53h-1.188v-4.704C63.826 34.202 57.624 28 50 28s-13.826 6.202-13.826 13.826v4.704h-1.188a3.567 3.567 0 0 0-3.563 3.563v18.343a3.567 3.567 0 0 0 3.563 3.563h30.028a3.567 3.567 0 0 0 3.563-3.563V50.093a3.567 3.567 0 0 0-3.563-3.563zM53.122 64.138c.132.788-.43 1.512-1.174 1.512h-3.897c-.743 0-1.305-.724-1.174-1.512l1.311-5.065a3.415 3.415 0 0 1-1.61-2.899 3.421 3.421 0 0 1 6.842 0 3.415 3.415 0 0 1-1.61 2.899l1.312 5.065zm4.147-17.608H42.73v-4.704c0-4.008 3.261-7.269 7.269-7.269s7.269 3.261 7.269 7.269v4.704z" fill="#fff"/><metadata xmlns:d="https://loading.io/stock/">
<d:name>lock</d:name>
<d:tags>lock,security,secret,protect,guard,safe,privacy,key,door,gate</d:tags>
<d:license>by</d:license>
<d:slug>txkneg</d:slug>
</metadata></svg>